<?xml version="1.0" standalone="no"?>
<!DOCTYPE svg PUBLIC "-//W3C//DTD SVG 20010904//EN"
 "http://www.w3.org/TR/2001/REC-SVG-20010904/DTD/svg10.dtd">
<svg version="1.0" xmlns="http://www.w3.org/2000/svg"
 width="360.000000pt" height="360.000000pt" viewBox="0 0 360.000000 360.000000"
 preserveAspectRatio="xMidYMid meet">
<metadata>
Created by potrace 1.14, written by Peter Selinger 2001-2017
</metadata>
<g transform="translate(0.000000,360.000000) scale(0.100000,-0.100000)"
fill="#000000" stroke="none">
<path d="M1393 3022 c-23 -3 -23 -5 -23 -168 l0 -164 65 0 65 0 0 -45 0 -45
-139 0 c-160 0 -149 8 -149 -104 0 -62 -2 -71 -24 -87 -14 -10 -67 -53 -120
-96 -52 -43 -187 -152 -300 -243 -228 -183 -210 -159 -224 -307 -8 -85 -4 -88
62 -43 l44 31 0 -500 0 -500 -77 -3 -78 -3 0 -90 0 -90 1324 -3 c970 -1 1327
1 1337 9 9 8 14 34 14 79 0 101 1 100 -91 100 l-79 0 0 501 0 500 30 -21 c16
-11 32 -25 35 -30 10 -17 45 -11 45 7 0 9 -5 56 -11 105 l-12 87 -281 229
c-154 125 -300 243 -323 262 l-43 33 0 88 0 88 -142 3 -143 3 0 40 0 40 63 3
62 3 0 164 c0 91 -3 165 -7 165 -166 3 -865 4 -880 2z m847 -167 l0 -125 -415
0 -415 0 0 125 0 125 415 0 415 0 0 -125z m-130 -210 l0 -45 -285 0 -285 0 0
45 0 45 285 0 285 0 0 -45z m280 -990 l0 -905 -155 0 -155 0 -1 278 c0 152 -1
347 -2 432 l-2 155 -247 3 -248 2 0 -435 0 -435 -160 0 -160 0 0 905 0 905
565 0 565 0 0 -905z m-1180 646 c0 -56 -2 -60 -37 -87 -21 -16 -43 -33 -49
-39 -6 -6 -64 -51 -128 -100 -65 -50 -159 -122 -210 -160 -50 -39 -115 -88
-145 -110 l-53 -38 7 54 c5 41 13 59 34 76 14 11 148 120 296 242 149 121 273
220 278 221 4 0 7 -26 7 -59z m1302 8 c35 -28 106 -86 158 -128 52 -42 103
-83 112 -91 9 -8 71 -58 137 -110 66 -52 123 -104 125 -115 10 -44 16 -109 9
-99 -5 5 -26 23 -48 40 -56 41 -395 303 -487 377 l-78 62 0 58 c0 31 2 57 5
57 3 0 33 -23 67 -51z m-1302 -844 l0 -715 -35 0 -34 0 -1 562 c0 309 -2 564
-5 566 -2 2 -11 2 -20 -1 -13 -6 -15 -71 -15 -567 l0 -560 -35 0 -35 0 0 520
c0 513 0 520 -20 520 -20 0 -20 -7 -20 -520 l0 -520 -35 0 -35 0 0 475 c0 468
0 475 -20 475 -20 0 -20 -7 -20 -475 l0 -475 -35 0 -35 0 0 424 c0 346 -3 426
-14 435 -34 28 -36 -6 -34 -438 l3 -421 -37 0 -38 0 1 515 1 515 211 162 c115
90 231 180 256 200 25 20 47 37 49 37 1 1 2 -321 2 -714z m1395 586 c77 -57
188 -142 248 -188 l107 -84 0 -515 0 -514 -35 0 -35 0 0 429 c0 359 -2 430
-14 434 -8 3 -17 3 -20 0 -3 -4 -6 -199 -6 -435 l0 -428 -35 0 -35 0 -2 473
c-3 464 -3 472 -23 472 -20 0 -20 -8 -23 -472 l-2 -473 -35 0 -35 0 0 520 c0
513 0 520 -20 520 -20 0 -20 -7 -20 -520 l0 -520 -35 0 -35 0 0 565 c0 558 0
565 -20 565 -20 0 -20 -7 -20 -565 l0 -565 -35 0 -35 0 0 711 c0 565 3 709 13
703 6 -4 75 -55 152 -113z m-575 -506 l0 -35 -205 0 -205 0 0 35 0 35 205 0
205 0 0 -35z m0 -115 l0 -40 -205 0 -205 0 0 35 0 35 203 3 c111 1 203 3 205
5 1 1 2 -16 2 -38z m0 -380 l0 -300 -90 0 -90 0 -2 212 c-3 193 -5 213 -20
216 -17 3 -18 -12 -18 -212 l0 -216 -95 0 -95 0 0 300 0 300 205 0 205 0 0
-300z m1090 -395 l0 -45 -1295 0 -1295 0 0 45 0 45 1295 0 1295 0 0 -45z"/>
<path d="M1500 2855 c0 -43 4 -75 10 -75 6 0 10 16 10 35 0 32 2 35 29 35 26
0 30 -4 33 -32 2 -17 9 -33 16 -36 9 -3 12 16 12 72 0 61 -3 76 -15 76 -10 0
-15 -10 -15 -30 0 -27 -3 -30 -30 -30 -27 0 -30 3 -30 30 0 17 -4 30 -10 30
-6 0 -10 -32 -10 -75z"/>
<path d="M1660 2910 c-43 -43 -13 -130 45 -130 31 0 75 41 75 70 0 24 -18 61
-34 72 -21 14 -66 8 -86 -12z m81 -24 c23 -50 -13 -98 -55 -74 -19 11 -22 68
-4 86 20 20 48 14 59 -12z"/>
<path d="M1790 2920 c0 -5 11 -10 25 -10 24 0 25 -2 25 -65 0 -83 18 -85 22
-2 3 56 5 62 26 65 46 7 20 22 -38 22 -33 0 -60 -4 -60 -10z"/>
<path d="M1930 2854 l0 -76 53 4 c63 4 69 22 9 26 -34 3 -42 7 -38 18 3 9 6
18 6 20 0 2 16 4 35 4 19 0 35 5 35 10 0 6 -18 10 -41 10 -33 0 -40 3 -37 18
2 12 15 18 46 20 58 4 43 22 -19 22 l-49 0 0 -76z"/>
<path d="M2070 2928 c-1 -2 -2 -34 -2 -73 l-2 -70 47 0 c56 0 68 19 15 23
l-38 3 0 60 c0 33 -4 59 -10 59 -5 0 -10 -1 -10 -2z"/>
<path d="M1337 2444 c-4 -4 -7 -49 -7 -101 0 -67 3 -93 13 -94 54 -4 172 2
179 9 5 5 8 49 6 98 l-3 89 -90 3 c-50 1 -94 0 -98 -4z m143 -99 l0 -55 -55 0
-55 0 0 55 0 55 55 0 55 0 0 -55z"/>
<path d="M1596 2434 c-3 -9 -6 -51 -6 -94 0 -66 3 -81 18 -88 15 -7 170 -7
178 0 2 3 7 150 5 181 -1 15 -13 17 -95 17 -76 0 -95 -3 -100 -16z m154 -89
l0 -55 -55 0 -55 0 0 55 0 55 55 0 55 0 0 -55z"/>
<path d="M1867 2444 c-4 -4 -7 -49 -7 -101 0 -86 1 -93 20 -94 11 0 52 0 90 0
39 0 75 0 80 0 7 1 10 36 8 99 l-3 97 -90 3 c-50 1 -94 0 -98 -4z m153 -99 l0
-55 -60 0 -60 0 0 55 0 55 60 0 60 0 0 -55z"/>
<path d="M2126 2427 c-10 -40 -5 -167 7 -174 19 -12 181 -3 189 10 9 14 11
148 2 171 -5 13 -24 16 -99 16 -89 0 -93 -1 -99 -23z m154 -82 l0 -55 -55 0
-55 0 0 55 0 55 55 0 55 0 0 -55z"/>
<path d="M1343 2164 c-9 -4 -13 -34 -13 -99 0 -108 -3 -105 105 -105 50 0 76
4 84 14 8 9 11 46 9 103 l-3 88 -85 2 c-47 1 -91 -1 -97 -3z m137 -99 l0 -55
-55 0 -55 0 0 55 0 55 55 0 55 0 0 -55z"/>
<path d="M1608 2159 c-15 -8 -18 -24 -18 -92 0 -51 5 -88 12 -95 14 -14 155
-17 176 -4 18 12 19 182 0 193 -18 12 -149 11 -170 -2z m142 -94 l0 -55 -55 0
-55 0 0 55 0 55 55 0 55 0 0 -55z"/>
<path d="M1873 2163 c-9 -3 -13 -33 -13 -98 0 -84 2 -94 20 -100 21 -7 147 -5
168 3 8 3 12 32 12 97 0 75 -3 94 -16 99 -19 7 -153 7 -171 -1z m147 -98 l0
-55 -60 0 -60 0 0 55 0 55 60 0 60 0 0 -55z"/>
<path d="M2140 2160 c-18 -11 -27 -148 -11 -177 8 -17 22 -20 85 -22 111 -3
116 2 116 104 0 73 -3 86 -19 95 -24 13 -151 13 -171 0z m140 -95 l0 -55 -55
0 -55 0 0 55 0 55 55 0 55 0 0 -55z"/>
<path d="M1339 1879 c-6 -3 -8 -48 -7 -100 l3 -94 75 -3 c124 -5 121 -7 118
101 l-3 92 -89 5 c-48 3 -92 2 -97 -1z m141 -94 l0 -55 -55 0 -55 0 0 55 0 55
55 0 55 0 0 -55z"/>
<path d="M1680 1880 l-85 -5 -3 -83 c-2 -53 1 -89 9 -98 8 -10 35 -14 95 -14
69 0 85 3 92 18 6 13 7 90 2 173 0 12 -24 14 -110 9z m70 -95 l0 -55 -55 0
-55 0 0 55 0 55 55 0 55 0 0 -55z"/>
<path d="M1942 1882 l-83 -3 3 -97 3 -97 95 0 95 0 3 96 c3 112 11 106 -116
101z m78 -97 l0 -55 -60 0 -60 0 0 55 0 55 60 0 60 0 0 -55z"/>
<path d="M2127 1873 c-12 -12 -8 -168 5 -181 7 -7 43 -12 93 -12 50 0 86 5 93
12 12 12 17 143 6 172 -5 13 -23 16 -98 16 -51 0 -96 -3 -99 -7z m153 -88 l0
-55 -55 0 -55 0 0 55 0 55 55 0 55 0 0 -55z"/>
<path d="M1332 1503 l3 -98 95 0 95 0 0 95 0 95 -98 3 -98 3 3 -98z m148 0 l0
-58 -55 3 -55 4 0 54 0 54 55 0 55 0 0 -57z"/>
<path d="M2126 1583 c-9 -35 -6 -156 5 -169 8 -10 37 -14 99 -14 102 0 100 -2
100 100 0 103 3 100 -105 100 -81 0 -94 -2 -99 -17z m154 -80 l0 -58 -55 0
-55 0 0 58 0 57 55 0 55 0 0 -57z"/>
<path d="M1330 1220 l0 -101 98 3 97 3 0 95 0 95 -97 3 -98 3 0 -101z m150 -1
c0 -52 -2 -60 -16 -55 -9 3 -33 6 -55 6 l-39 0 0 55 0 55 55 0 55 0 0 -61z"/>
<path d="M2126 1304 c-3 -9 -6 -46 -6 -84 0 -103 -3 -100 105 -100 108 0 105
-3 105 100 0 103 3 100 -105 100 -75 0 -94 -3 -99 -16z m154 -81 l0 -58 -55 0
-55 0 0 58 0 57 55 0 55 0 0 -57z"/>
<path d="M1330 940 l0 -101 98 3 97 3 0 95 0 95 -97 3 -98 3 0 -101z m150 0
l0 -60 -55 0 -55 0 0 60 0 60 55 0 55 0 0 -60z"/>
<path d="M2127 1033 c-9 -8 -9 -156 -1 -177 5 -13 24 -16 99 -16 108 0 105 -3
105 100 0 103 3 100 -104 100 -51 0 -96 -3 -99 -7z m153 -93 l0 -60 -55 0 -55
0 0 60 0 60 55 0 55 0 0 -60z"/>
</g>
</svg>
